<?xml version="1.0" encoding="utf-8"?>
<!-- Generator: Adobe Illustrator 19.1.0, SVG Export Plug-In . SVG Version: 6.00 Build 0)  -->
<svg version="1.0" id="Layer_2" xmlns="http://www.w3.org/2000/svg" xmlns:xlink="http://www.w3.org/1999/xlink" x="0px" y="0px"
	 viewBox="0 0 104.5 107.5" style="enable-background:new 0 0 104.5 107.5;" xml:space="preserve">
<g id="Polygon">
	<g>
		<path style="fill:#443A8B;" d="M12.7,20l80.5,8.2L45.7,93.6L12.7,20 M6.2,15.3l38.7,86.2l55.6-76.7L6.2,15.3L6.2,15.3z"/>
	</g>
</g>
<g id="Circle_1_">
	<g>
		<path style="fill:#FE6192;" d="M75.5,10.1c4.3,0,7.9,3.5,7.9,7.9c0,4.3-3.5,7.9-7.9,7.9s-7.9-3.5-7.9-7.9
			C67.6,13.6,71.1,10.1,75.5,10.1 M75.5,5.1c-7.1,0-12.9,5.8-12.9,12.9c0,7.1,5.8,12.9,12.9,12.9s12.9-5.8,12.9-12.9
			C88.3,10.8,82.6,5.1,75.5,5.1L75.5,5.1z"/>
	</g>
</g>
</svg>
