<?xml version="1.0" encoding="utf-8"?>
<!-- Generator: Adobe Illustrator 19.1.0, SVG Export Plug-In . SVG Version: 6.00 Build 0)  -->
<svg version="1.0" xmlns="http://www.w3.org/2000/svg" xmlns:xlink="http://www.w3.org/1999/xlink" x="0px" y="0px"
	 viewBox="0 0 100 100" style="enable-background:new 0 0 100 100;" xml:space="preserve">
<g id="triangle_circle">
	<g id="Polygon_1_" style="display:none;">
		<g style="display:inline;">
			<path style="fill:#F06191;" d="M88.1,13.7L67.5,86.5L14.9,32.2L88.1,13.7 M91,11L11.1,31.1l57.4,59.3L91,11L91,11z"/>
		</g>
	</g>
	<g id="Circle_2_">
		<g>
			<path style="fill:#F06191;" d="M49,40.2c9.4,0,17.1,7.7,17.1,17.1c0,9.4-7.7,17.1-17.1,17.1s-17.1-7.7-17.1-17.1
				C31.9,47.8,39.6,40.2,49,40.2 M49,24.2c-18.3,0-33.1,14.8-33.1,33.1c0,18.3,14.8,33.1,33.1,33.1s33.1-14.8,33.1-33.1
				C82.1,39,67.3,24.2,49,24.2L49,24.2z"/>
		</g>
	</g>
</g>
<g id="Layer_2">
</g>
</svg>
