<?xml version="1.0"?>
<svg xmlns="http://www.w3.org/2000/svg" xmlns:xlink="http://www.w3.org/1999/xlink" version="1.1" viewBox="0 0 172 172" width="50px" height="50px"><g fill="none" fill-rule="nonzero" stroke="none" stroke-width="1" stroke-linecap="butt" stroke-linejoin="miter" stroke-miterlimit="10" stroke-dasharray="" stroke-dashoffset="0" font-family="none" font-weight="none" font-size="none" text-anchor="none" style="mix-blend-mode: normal"><path d="M0,172v-172h172v172z" fill="none"/><g fill="#e8f5fb"><g id="surface1"><path d="M41.28,13.76c-7.095,0 -13.16875,5.52281 -13.76,12.5775l-6.88,75.68c-0.3225,3.81625 1.06156,7.71313 3.655,10.535c2.60688,2.82188 6.27531,4.4075 10.105,4.4075h103.2c3.82969,0 7.51156,-1.58562 10.105,-4.4075c2.60688,-2.82187 3.9775,-6.67844 3.655,-10.535l-6.88,-75.68c-0.59125,-7.08156 -6.665,-12.5775 -13.76,-12.5775zM20.1025,32.3575c-4.32687,2.06938 -7.37719,6.28875 -7.8475,11.395l-8.7075,94.9225c-0.37625,4.12531 0.9675,8.22375 3.7625,11.2875c2.795,3.06375 6.71875,4.8375 10.8575,4.8375h135.665c4.13875,0 8.0625,-1.77375 10.8575,-4.8375c2.795,-3.06375 4.13875,-7.16219 3.7625,-11.2875l-8.7075,-94.9225c-0.47031,-5.10625 -3.52062,-9.32562 -7.8475,-11.395l6.3425,67.51v23.9725c0,11.38156 -9.25844,20.64 -20.64,20.64h-103.2c-11.38156,0 -20.64,-9.25844 -20.64,-20.64v-17.0925l0.1075,-6.88zM85.6775,34.4c6.82625,0 19.78,1.69313 19.78,7.74c0,3.7625 -3.56094,4.8375 -6.3425,4.8375c-4.945,0 -8.53281,-3.01 -13.33,-3.01c-4.79719,0 -7.095,2.16344 -7.095,5.16c0,7.72656 32.3575,3.21156 32.3575,23.22c0,16.58188 -18.67812,19.135 -23.22,19.135c-7.60562,0 -28.38,-1.19594 -28.38,-9.7825c0,-5.45562 5.16,-6.45 8.2775,-6.45c3.93719,0 9.54063,3.9775 16.6625,3.9775c5.0525,0 10.32,-2.55312 10.32,-6.3425c0,-10.09156 -31.7125,-6.15437 -31.7125,-21.93c0,-12.92687 13.58531,-16.555 22.6825,-16.555zM20.64,118.5725v5.2675c0,7.59219 6.16781,13.76 13.76,13.76h103.2c7.59219,0 13.76,-6.16781 13.76,-13.76v-5.2675c-3.7625,3.37281 -8.66719,5.2675 -13.76,5.2675h-103.2c-5.07937,0 -9.9975,-1.90812 -13.76,-5.2675z"/></g></g></g></svg>
