<?xml version="1.0" encoding="utf-8"?>
<!-- Generator: Adobe Illustrator 19.1.0, SVG Export Plug-In . SVG Version: 6.00 Build 0)  -->
<svg version="1.0" id="Layer_1" xmlns="http://www.w3.org/2000/svg" xmlns:xlink="http://www.w3.org/1999/xlink" x="0px" y="0px"
	 viewBox="0 0 100 100" style="enable-background:new 0 0 100 100;" xml:space="preserve">
<g id="Polygon_1_">
	<g>
		<path style="fill:#F06191;" d="M88.1,13.7L67.5,86.5L14.9,32.2L88.1,13.7 M91,11L11.1,31.1l57.4,59.3L91,11L91,11z"/>
	</g>
</g>
<g id="Circle_2_">
	<g>
		<path style="fill:#443B8C;" d="M37.7,53.7c8.2,0,14.8,6.7,14.8,14.8c0,8.2-6.7,14.8-14.8,14.8s-14.8-6.7-14.8-14.8
			C22.9,60.4,29.5,53.7,37.7,53.7 M37.7,46.7c-12.1,0-21.8,9.8-21.8,21.8c0,12.1,9.8,21.8,21.8,21.8s21.8-9.8,21.8-21.8
			C59.6,56.5,49.8,46.7,37.7,46.7L37.7,46.7z"/>
	</g>
</g>
</svg>
